<?xml version="1.0" encoding="UTF-8" standalone="no"?>
<svg
   height="24px"
   viewBox="0 -960 960 960"
   width="24px"
   fill="#F2F2F2"
   version="1.1"
   id="svg4"
   sodipodi:docname="icon.svg"
   inkscape:version="1.1.1 (3bf5ae0d25, 2021-09-20)"
   inkscape:export-filename="D:\research-desktop\public\images\icon.png"
   inkscape:export-xdpi="2048"
   inkscape:export-ydpi="2048"
   xmlns:inkscape="http://www.inkscape.org/namespaces/inkscape"
   xmlns:sodipodi="http://sodipodi.sourceforge.net/DTD/sodipodi-0.dtd"
   xmlns="http://www.w3.org/2000/svg"
   xmlns:svg="http://www.w3.org/2000/svg">
  <defs
     id="defs8" />
  <sodipodi:namedview
     id="namedview6"
     pagecolor="#505050"
     bordercolor="#eeeeee"
     borderopacity="1"
     inkscape:pageshadow="0"
     inkscape:pageopacity="0"
     inkscape:pagecheckerboard="0"
     showgrid="false"
     inkscape:zoom="15.999999"
     inkscape:cx="2.2187501"
     inkscape:cy="19.781251"
     inkscape:window-width="1920"
     inkscape:window-height="1009"
     inkscape:window-x="1912"
     inkscape:window-y="-8"
     inkscape:window-maximized="1"
     inkscape:current-layer="layer3"
     scale-x="39" />
  <g
     inkscape:groupmode="layer"
     id="layer1"
     inkscape:label="bkg"
     style="display:inline" />
  <g
     inkscape:groupmode="layer"
     id="layer3"
     inkscape:label="circles">
    <circle
       style="fill:#f2f2f2;fill-opacity:1;stroke-width:0"
       id="path1076"
       cx="338.4375"
       cy="-814.0625"
       r="59.687504" />
    <circle
       style="fill:#f2f2f2;fill-opacity:1;stroke-width:0"
       id="path1076-3"
       cx="817.60413"
       cy="-766.11359"
       r="59.687504" />
    <circle
       style="fill:#f2f2f2;fill-opacity:1;stroke-width:0"
       id="path1076-3-6"
       cx="521.25006"
       cy="-520"
       r="59.687504" />
    <circle
       style="fill:#f2f2f2;fill-opacity:1;stroke-width:0"
       id="path1076-3-6-4"
       cx="146.08308"
       cy="-333.89404"
       r="59.687504" />
    <circle
       style="fill:#f2f2f2;fill-opacity:1;stroke-width:0"
       id="path1076-3-6-4-7"
       cx="483.90167"
       cy="-143.58307"
       r="59.687504" />
  </g>
  <g
     inkscape:groupmode="layer"
     id="layer2"
     inkscape:label="content">
    <path
       d="m 480,0 q -60,0 -102,-42 -42,-42 -42,-102 0,-6 0.6,-13.2 0.6,-7.2 1.8,-13.2 l -99.6,-56.4 q -19.2,16.8 -43.2,25.8 -24,9 -51.6,9 -60,0 -102,-42 -42,-42 -42,-102 0,-60 42,-102 42,-42 102,-42 28.8,0 54,10.8 25.2,10.8 45.6,30 l 142.8,-72 q -3.6,-27.6 3,-54 6.6,-26.4 23.4,-49.2 L 372,-676.8 q -8.4,2.4 -17.4,3.6 -9,1.2 -18.6,1.2 -60,0 -102,-42 -42,-42 -42,-102 0,-60 42,-102 42,-42 102,-42 60,0 102,42 42,42 42,102 0,24 -7.8,46.2 -7.8,22.2 -21,40.2 l 42,62.4 q 9.6,-2.4 18,-3.6 8.4,-1.2 18,-1.2 20.4,0 38.4,4.8 18,4.8 34.8,14.4 l 79.2,-64.8 q -4.8,-12 -7.2,-24.6 -2.4,-12.6 -2.4,-25.8 0,-60 42,-102 42,-42 102,-42 60,0 102,42 42,42 42,102 0,60 -42,102 -42,42 -102,42 -20.4,0 -38.4,-5.4 -18,-5.4 -34.8,-15 l -79.2,66 q 4.8,12 7.2,24.6 2.4,12.6 2.4,25.8 0,60 -42,102 -42,42 -102,42 -28.8,0 -54.6,-10.8 -25.8,-10.8 -46.2,-30 L 286.8,-354 q 2.4,10.8 1.8,21.6 -0.6,10.8 -3,21.6 l 100.8,57.6 q 19.2,-16.8 42.6,-25.8 23.4,-9 51,-9 60,0 102,42 42,42 42,102 0,60 -42,102 Q 540,0 480,0 Z M 144,-288 q 20.4,0 34.2,-13.8 13.8,-13.8 13.8,-34.2 0,-20.4 -13.8,-34.2 -13.8,-13.8 -34.2,-13.8 -20.4,0 -34.2,13.8 -13.8,13.8 -13.8,34.2 0,20.4 13.8,34.2 13.8,13.8 34.2,13.8 z m 192,-480 q 20.4,0 34.2,-13.8 13.8,-13.8 13.8,-34.2 0,-20.4 -13.8,-34.2 -13.8,-13.8 -34.2,-13.8 -20.4,0 -34.2,13.8 -13.8,13.8 -13.8,34.2 0,20.4 13.8,34.2 13.8,13.8 34.2,13.8 z m 144,672 q 20.4,0 34.2,-13.8 13.8,-13.8 13.8,-34.2 0,-20.4 -13.8,-34.2 -13.8,-13.8 -34.2,-13.8 -20.4,0 -34.2,13.8 -13.8,13.8 -13.8,34.2 0,20.4 13.8,34.2 13.8,13.8 34.2,13.8 z m 48,-384 q 20.4,0 34.2,-13.8 13.8,-13.8 13.8,-34.2 0,-20.4 -13.8,-34.2 -13.8,-13.8 -34.2,-13.8 -20.4,0 -34.2,13.8 -13.8,13.8 -13.8,34.2 0,20.4 13.8,34.2 13.8,13.8 34.2,13.8 z m 288,-240 q 20.4,0 34.2,-13.8 13.8,-13.8 13.8,-34.2 0,-20.4 -13.8,-34.2 -13.8,-13.8 -34.2,-13.8 -20.4,0 -34.2,13.8 -13.8,13.8 -13.8,34.2 0,20.4 13.8,34.2 13.8,13.8 34.2,13.8 z"
       id="path2"
       style="fill:#2985e0;fill-opacity:1;stroke-width:1.2" />
  </g>
</svg>
