<?xml version="1.0" encoding="UTF-8" standalone="no"?>
<svg
   height="24px"
   viewBox="0 -960 960 960"
   width="24px"
   fill="#F2F2F2"
   version="1.1"
   id="svg4"
   sodipodi:docname="icon.svg"
   inkscape:version="1.1.1 (3bf5ae0d25, 2021-09-20)"
   inkscape:export-filename="D:\research-desktop\public\icon.png"
   inkscape:export-xdpi="2048"
   inkscape:export-ydpi="2048"
   xmlns:inkscape="http://www.inkscape.org/namespaces/inkscape"
   xmlns:sodipodi="http://sodipodi.sourceforge.net/DTD/sodipodi-0.dtd"
   xmlns="http://www.w3.org/2000/svg"
   xmlns:svg="http://www.w3.org/2000/svg">
  <defs
     id="defs8" />
  <sodipodi:namedview
     id="namedview6"
     pagecolor="#505050"
     bordercolor="#eeeeee"
     borderopacity="1"
     inkscape:pageshadow="0"
     inkscape:pageopacity="0"
     inkscape:pagecheckerboard="0"
     showgrid="false"
     inkscape:zoom="11.313708"
     inkscape:cx="4.1984465"
     inkscape:cy="7.8223688"
     inkscape:window-width="1920"
     inkscape:window-height="1009"
     inkscape:window-x="1912"
     inkscape:window-y="-8"
     inkscape:window-maximized="1"
     inkscape:current-layer="layer1" />
  <g
     inkscape:groupmode="layer"
     id="layer1"
     inkscape:label="bkg"
     style="display:inline">
    <rect
       style="fill:#0d0d0d;fill-opacity:1;stroke-width:0"
       id="rect848"
       width="960"
       height="960"
       x="-1.4210855e-14"
       y="-960"
       ry="40"
       rx="40" />
  </g>
  <g
     inkscape:groupmode="layer"
     id="layer2"
     inkscape:label="content">
    <path
       d="m 480.12,-132 q -35.88,0 -61,-25.08 Q 394,-182.17 394,-218 q 0,-8 1.5,-15.5 1.5,-7.5 4.5,-15.5 l -114,-64 q -12,15 -29.78,23.5 -17.78,8.5 -38.22,8.5 -35.83,0 -60.92,-25.32 Q 132,-331.65 132,-367.82 132,-404 157.08,-429.5 182.17,-455 218,-455 q 21.82,0 40.91,9.5 Q 278,-436 290,-419 l 145,-73 q -7,-24 -0.5,-48 6.5,-24 24.5,-41 l -55,-81 q -8,4 -17.46,6 -9.45,2 -19.54,2 -35.83,0 -60.92,-25.32 -25.08,-25.33 -25.08,-61.5 0,-36.18 25.12,-61.68 25.12,-25.5 61,-25.5 35.88,0 61.88,25.37 26,25.38 26,61.63 0,19 -7.5,35.5 Q 440,-689 427,-677 l 55,81 q 8,-4 16.59,-6 8.59,-2 18.41,-2 16.64,0 31.32,5.5 Q 563,-593 574,-583 l 92,-75 q -5,-10 -8.5,-20.5 -3.5,-10.5 -3.5,-22.5 0,-36.25 25.12,-61.63 25.12,-25.37 61,-25.37 35.88,0 61.88,25.32 26,25.33 26,61.5 0,36.18 -26,61.68 -26,25.5 -62,25.5 -17,0 -31,-6 -14,-6 -25,-16 l -91,75 q 6,10.48 9,21.48 3,11 3,22.52 0,36.25 -26,61.62 -26,25.38 -62,25.38 -22,0 -40,-10 -18,-10 -30,-27 l -145,73 q 5,14 3.83,28.33 -1.16,14.34 -5.83,28.67 l 113,64 q 12,-15 29.3,-23.5 17.3,-8.5 37.7,-8.5 36,0 62,25.12 26,25.12 26,61 0,35.88 -26,61.38 -26,25.5 -61.88,25.5 z M 218.5,-309 q 24.5,0 42,-16.95 17.5,-16.94 17.5,-42 Q 278,-393 260.75,-410.5 243.5,-428 218,-428 q -24,0 -41,17.25 -17,17.25 -17,42.75 0,24 17,41.5 17,17.5 41.5,17.5 z m 149,-373 q 24.5,0 42,-16.95 17.5,-16.94 17.5,-42 0,-25.05 -17.25,-42.05 -17.25,-17 -42.75,-17 -24,0 -41,17.5 -17,17.5 -17,41.5 0,24 17,41.5 17,17.5 41.5,17.5 z m 113,523 q 24.5,0 41.5,-16.95 17,-16.94 17,-42 0,-25.05 -16.96,-42.05 -16.96,-17 -42.04,-17 -24,0 -41.5,17.5 -17.5,17.5 -17.5,41.5 0,24 17.5,41.5 17.5,17.5 42,17.5 z m 37,-299 q 24.5,0 41.5,-16.95 17,-16.94 17,-42 0,-25.05 -16.96,-42.05 -16.96,-17 -42.04,-17 -24,0 -41.5,17.5 -17.5,17.5 -17.5,41.5 0,24 17.5,41.5 17.5,17.5 42,17.5 z m 223,-184 q 24.5,0 42,-16.95 17.5,-16.94 17.5,-42 0,-25.05 -17.25,-42.05 -17.25,-17 -42.75,-17 -24,0 -41,16.96 -17,16.96 -17,42.04 0,24 17,41.5 17,17.5 41.5,17.5 z"
       id="path2"
       style="fill:#f2f2f2;fill-opacity:1" />
  </g>
</svg>
